<svg xmlns="http://www.w3.org/2000/svg" version="1.1" xmlns:xlink="http://www.w3.org/1999/xlink" xmlns:svgjs="http://svgjs.com/svgjs" x="0" y="0" viewBox="0 0 32 32" style="enable-background:new 0 0 512 512" xml:space="preserve" class=""><g><g data-name="Layer 23"><path d="m23.71 22.29-2-2a1 1 0 0 0-1.42 0l-2 2a1 1 0 0 0 1.42 1.42l.29-.3V27a1 1 0 0 0 2 0v-3.59l.29.3a1 1 0 0 0 1.42 0 1 1 0 0 0 0-1.42zM29.71 24.29a1 1 0 0 0-1.42 0l-.29.3V21a1 1 0 0 0-2 0v3.59l-.29-.3a1 1 0 0 0-1.42 1.42l2 2a1 1 0 0 0 1.42 0l2-2a1 1 0 0 0 0-1.42z" fill="currentColor" data-original="#000000"/><path d="m16.88 20.88 2-2a3 3 0 0 1 4.24 0l.12.12A11 11 0 1 0 17 25.23l-.14-.11a3 3 0 0 1 .02-4.24zM14 20v1a1 1 0 0 1-2 0v-1h-2a1 1 0 0 1 0-2h5v-2h-4a2 2 0 0 1-2-2v-2a2 2 0 0 1 2-2h1V9a1 1 0 0 1 2 0v1h2a1 1 0 0 1 0 2h-5v2h4a2 2 0 0 1 2 2v2a2 2 0 0 1-2 2z" fill="currentColor" data-original="#000000"/></g></g></svg>