<svg xmlns="http://www.w3.org/2000/svg" version="1.1" xmlns:xlink="http://www.w3.org/1999/xlink" xmlns:svgjs="http://svgjs.com/svgjs" x="0" y="0" viewBox="0 0 2000 2000" style="enable-background:new 0 0 512 512" xml:space="preserve"><g><path d="M997.58 880.28 867.3 1041.07c-4.11 5.07-11.59 5.76-16.55 1.52l-99.43-84.99a19.214 19.214 0 0 0-20.55-2.83 19.225 19.225 0 0 0-11.18 17.46v746.36c0 17.33-20.5 31.42-37.83 31.42-17.32 0-37.83-14.09-37.83-31.42v-414.9c0-30.42-11.92-55.18-42.36-55.18-30.42 0-42.36 24.76-42.36 55.18v414.9c0 17.33-20.51 31.42-37.83 31.42s-37.83-14.09-37.83-31.42V871.63c0-31.08 25.19-56.27 56.27-56.27H660c17.82 0 34.22 8.18 44.96 22.45.73.96 125.22 113.86 125.22 113.86.13.12.26.23.38.33 6.78 5.83 15.78 8.69 24.69 7.81 8.9-.86 17.18-5.38 22.72-12.42l78.9-100.23c9.13-11.16 25.63-12.87 36.85-3.78 11.23 9.11 12.97 25.66 3.86 36.9zM268.05 250h1463.9v64.31H268.05z" fill="currentColor" data-original="#000000"/><path d="M406.01 352.77v746.69h39.06V871.63c0-52.24 42.5-94.73 94.73-94.73h120.18c29.37 0 56.41 13.18 74.51 36.24l116.87 105.83 75.37-95.74c.05-.06.12-.14.17-.21 17.59-21.71 46.44-29.04 71.44-20.42l178.41-230.09c6.51-8.39 18.59-9.92 26.99-3.41 8.38 6.51 9.91 18.59 3.41 26.99l-177.83 229.33c8.29 11.27 12.55 24.79 12.55 38.41 0 14.31-4.72 28.7-14.41 40.67l-141.32 174.41c-11.27 13.91-31.91 16.24-45.99 5.18-.22-.17-.42-.33-.63-.51l-81.47-69.63v85.51h835.93V352.77zM607.1 747.33c-72.19 0-130.94-58.73-130.94-130.94 0-72.19 58.74-130.94 130.94-130.94 72.21 0 130.94 58.74 130.94 130.94 0 72.21-58.73 130.94-130.94 130.94z" fill="currentColor" data-original="#000000"/><circle cx="607.1" cy="616.4" r="92.47" transform="rotate(-89.25 607.215 616.347)" fill="currentColor" data-original="#000000"/></g></svg>